<mxfile host="app.diagrams.net" modified="2021-10-13T18:00:35.507Z" agent="5.0 (Windows NT 10.0; Win64; x64) AppleWebKit/537.36 (KHTML, like Gecko) Chrome/94.0.4606.71 Safari/537.36" etag="0BanaOOx2SuRd2jDEsO6" version="15.5.1" type="github">
  <diagram id="j77WsbII0YmULmNdMPOW" name="Page-1">
    <mxGraphModel dx="1550" dy="779" grid="1" gridSize="10" guides="1" tooltips="1" connect="1" arrows="1" fold="1" page="1" pageScale="1" pageWidth="850" pageHeight="1100" math="0" shadow="0">
      <root>
        <mxCell id="0" />
        <mxCell id="1" parent="0" />
        <mxCell id="Og-yJPecpw-Riyw98DYQ-10" style="edgeStyle=orthogonalEdgeStyle;rounded=0;orthogonalLoop=1;jettySize=auto;html=1;entryX=1;entryY=0.5;entryDx=0;entryDy=0;exitX=0;exitY=0.5;exitDx=0;exitDy=0;curved=1;" edge="1" parent="1" source="Og-yJPecpw-Riyw98DYQ-1" target="Og-yJPecpw-Riyw98DYQ-9">
          <mxGeometry relative="1" as="geometry">
            <Array as="points">
              <mxPoint x="140" y="310" />
              <mxPoint x="140" y="210" />
              <mxPoint x="860" y="210" />
              <mxPoint x="860" y="310" />
            </Array>
          </mxGeometry>
        </mxCell>
        <mxCell id="Og-yJPecpw-Riyw98DYQ-1" value="seq=8bytes" style="rounded=0;whiteSpace=wrap;html=1;fillColor=#fff2cc;strokeColor=#d6b656;" vertex="1" parent="1">
          <mxGeometry x="160" y="280" width="160" height="60" as="geometry" />
        </mxCell>
        <mxCell id="Og-yJPecpw-Riyw98DYQ-2" value="count=4bytes" style="rounded=0;whiteSpace=wrap;html=1;fillColor=#f8cecc;strokeColor=#b85450;" vertex="1" parent="1">
          <mxGeometry x="320" y="280" width="80" height="60" as="geometry" />
        </mxCell>
        <mxCell id="Og-yJPecpw-Riyw98DYQ-4" style="edgeStyle=orthogonalEdgeStyle;rounded=0;orthogonalLoop=1;jettySize=auto;html=1;" edge="1" parent="1" source="Og-yJPecpw-Riyw98DYQ-3">
          <mxGeometry relative="1" as="geometry">
            <mxPoint x="410" y="390" as="targetPoint" />
          </mxGeometry>
        </mxCell>
        <mxCell id="Og-yJPecpw-Riyw98DYQ-3" value="" style="rounded=0;whiteSpace=wrap;html=1;fillColor=#e1d5e7;strokeColor=#9673a6;" vertex="1" parent="1">
          <mxGeometry x="400" y="280" width="20" height="60" as="geometry" />
        </mxCell>
        <mxCell id="Og-yJPecpw-Riyw98DYQ-5" value="&lt;div style=&quot;color: rgb(36 , 41 , 46) ; background-color: rgb(255 , 255 , 255) ; font-family: &amp;#34;consolas&amp;#34; , &amp;#34;courier new&amp;#34; , monospace ; font-size: 14px ; line-height: 19px&quot;&gt;type=1byte&lt;/div&gt;" style="text;html=1;align=center;verticalAlign=middle;resizable=0;points=[];autosize=1;strokeColor=none;fillColor=none;" vertex="1" parent="1">
          <mxGeometry x="355" y="400" width="90" height="20" as="geometry" />
        </mxCell>
        <mxCell id="Og-yJPecpw-Riyw98DYQ-6" value="key-len=varint32" style="rounded=0;whiteSpace=wrap;html=1;fillColor=#60a917;strokeColor=#2D7600;fontColor=#ffffff;" vertex="1" parent="1">
          <mxGeometry x="420" y="280" width="80" height="60" as="geometry" />
        </mxCell>
        <mxCell id="Og-yJPecpw-Riyw98DYQ-7" value="key-data" style="rounded=0;whiteSpace=wrap;html=1;fillColor=#60a917;strokeColor=#2D7600;fontColor=#ffffff;" vertex="1" parent="1">
          <mxGeometry x="500" y="280" width="100" height="60" as="geometry" />
        </mxCell>
        <mxCell id="Og-yJPecpw-Riyw98DYQ-8" value="valye-len=varint32" style="rounded=0;whiteSpace=wrap;html=1;fillColor=#1ba1e2;strokeColor=#006EAF;fontColor=#ffffff;" vertex="1" parent="1">
          <mxGeometry x="600" y="280" width="80" height="60" as="geometry" />
        </mxCell>
        <mxCell id="Og-yJPecpw-Riyw98DYQ-9" value="value-data" style="rounded=0;whiteSpace=wrap;html=1;fillColor=#1ba1e2;strokeColor=#006EAF;fontColor=#ffffff;" vertex="1" parent="1">
          <mxGeometry x="680" y="280" width="160" height="60" as="geometry" />
        </mxCell>
        <mxCell id="Og-yJPecpw-Riyw98DYQ-11" value="&lt;div style=&quot;color: rgb(36 , 41 , 46) ; background-color: rgb(255 , 255 , 255) ; font-family: &amp;#34;consolas&amp;#34; , &amp;#34;courier new&amp;#34; , monospace ; font-size: 14px ; line-height: 19px&quot;&gt;&lt;span style=&quot;color: #6f42c1&quot;&gt;WriteBatch().&lt;/span&gt;&lt;span style=&quot;color: rgb(106 , 115 , 125)&quot;&gt;rep_&lt;/span&gt;&lt;/div&gt;" style="text;html=1;align=center;verticalAlign=middle;resizable=0;points=[];autosize=1;strokeColor=none;fillColor=none;" vertex="1" parent="1">
          <mxGeometry x="385" y="180" width="150" height="20" as="geometry" />
        </mxCell>
        <mxCell id="Og-yJPecpw-Riyw98DYQ-12" value="riverferry.site" style="text;html=1;align=center;verticalAlign=middle;resizable=0;points=[];autosize=1;strokeColor=none;fillColor=none;" vertex="1" parent="1">
          <mxGeometry x="630" y="230" width="80" height="20" as="geometry" />
        </mxCell>
      </root>
    </mxGraphModel>
  </diagram>
</mxfile>
